<?xml version="1.0" encoding="utf-8"?>
<!-- Generator: Adobe Illustrator 24.0.0, SVG Export Plug-In . SVG Version: 6.00 Build 0)  -->
<svg version="1.1" id="Layer_1" xmlns="http://www.w3.org/2000/svg" xmlns:xlink="http://www.w3.org/1999/xlink" x="0px" y="0px"
	 viewBox="0 0 144 144" style="enable-background:new 0 0 144 144;" xml:space="preserve">
<style type="text/css">
	.st0{fill:#1E1E1E;}
</style>
<g>
	<path class="st0" d="M72,1.7C32.2,1.7-0.1,34-0.1,73.8c0,31.9,20.7,58.8,49.3,68.4c3.6,0.7,4.9-1.6,4.9-3.5c0-1.7-0.1-7.4-0.1-13.4
		c-20,4.3-24.2-8.5-24.2-8.5c-3.3-8.3-8-10.5-8-10.5c-6.5-4.4,0.5-4.4,0.5-4.4c7.3,0.5,11,7.4,11,7.4c6.4,11,16.8,7.8,20.9,6
		c0.6-4.7,2.5-7.8,4.6-9.6c-16-1.8-32.8-8-32.8-35.6c0-7.9,2.8-14.3,7.4-19.4c-0.7-1.8-3.2-9.1,0.7-19.1c0,0,6-1.9,19.8,7.4
		c5.7-1.6,11.9-2.4,18-2.4c6.1,0,12.3,0.8,18.1,2.4c13.7-9.3,19.8-7.4,19.8-7.4c3.9,9.9,1.5,17.3,0.7,19.1
		c4.6,5.1,7.4,11.5,7.4,19.4c0,27.7-16.8,33.8-32.9,35.6c2.6,2.3,4.9,6.6,4.9,13.3c0,9.6-0.1,17.4-0.1,19.8c0,1.9,1.3,4.2,5,3.4
		c28.5-9.5,49.1-36.5,49.1-68.3C144.1,34,111.8,1.7,72,1.7z M26.9,104.3c-0.2,0.3-0.7,0.5-1.2,0.2c-0.5-0.2-0.8-0.7-0.6-1.1
		c0.2-0.4,0.7-0.5,1.2-0.2C26.8,103.5,27.1,104,26.9,104.3z M30.5,107.5c-0.3,0.3-1,0.2-1.5-0.3c-0.5-0.5-0.6-1.2-0.2-1.5
		c0.3-0.3,1-0.2,1.5,0.3C30.7,106.5,30.9,107.2,30.5,107.5z M32.9,111.5c-0.5,0.3-1.2,0-1.6-0.6c-0.5-0.6-0.5-1.4,0-1.7
		c0.5-0.3,1.2-0.1,1.6,0.6C33.4,110.5,33.4,111.3,32.9,111.5z M37,116.3c-0.4,0.5-1.2,0.3-1.9-0.3c-0.6-0.6-0.8-1.4-0.4-1.9
		c0.4-0.5,1.2-0.3,1.9,0.3C37.3,115,37.4,115.8,37,116.3z M42.3,117.8c-0.2,0.6-1,0.8-1.8,0.6c-0.8-0.2-1.4-0.9-1.2-1.5
		c0.2-0.6,1-0.8,1.8-0.6C42,116.6,42.5,117.3,42.3,117.8z M48.4,118.5c0,0.6-0.7,1.1-1.5,1.1c-0.8,0-1.6-0.5-1.6-1.1
		s0.7-1.1,1.5-1.1C47.7,117.4,48.4,117.9,48.4,118.5z M54.3,118.3c0.1,0.6-0.5,1.2-1.4,1.4c-0.8,0.2-1.6-0.2-1.7-0.8
		c-0.1-0.6,0.5-1.2,1.4-1.4C53.5,117.3,54.2,117.7,54.3,118.3z"/>
</g>
</svg>
