<?xml version="1.0" encoding="utf-8"?>
<!-- Generator: Adobe Illustrator 24.0.0, SVG Export Plug-In . SVG Version: 6.00 Build 0)  -->
<svg version="1.1" xmlns="http://www.w3.org/2000/svg" xmlns:xlink="http://www.w3.org/1999/xlink" x="0px" y="0px"
	 viewBox="0 0 864 864" style="enable-background:new 0 0 864 864;" xml:space="preserve">
<style type="text/css">
	.st0{fill:#FFFFFF;stroke:#000000;stroke-width:12;stroke-miterlimit:10;}
	.st1{fill:#F6CCB0;}
	.st2{fill:#CEAD97;}
	.st3{fill:#F4CDAF;}
	.st4{fill:#39B54A;}
	.st5{fill:#A97C50;}
	.st6{fill:#FFFFFF;}
	.st7{fill:#FDFEFF;}
	.st8{fill:#F4CCB1;}
	.st9{fill:#D1B099;}
	.st10{opacity:0.26;fill:#58595B;}
	.st11{fill:#2B3990;}
	.st12{fill:#C49A6C;}
</style>
<g id="Layer_2">
	<circle class="st0" cx="439.3" cy="432" r="357.06"/>
</g>
<g id="Layer_1">
	<path class="st1" d="M402.37,581.73c0.15,33.13,0.3,66.27,0.46,99.4c22.19-0.15,44.38-0.3,66.57-0.46
		c-0.3-33.13-0.61-66.26-0.91-99.4C446.44,581.43,424.4,581.58,402.37,581.73z"/>
	<path class="st2" d="M402.82,626.41c3.05-5.72,8.19-13.49,16.62-20.44c19.47-16.05,42.16-15.9,49.03-15.58
		c0.15-5.02,0.3-10.03,0.46-15.05c-22.19-0.61-44.38-1.22-66.57-1.82C402.52,591.15,402.67,608.78,402.82,626.41z"/>
	<path class="st3" d="M300.44,462.4c2.31,13.63,11.35,56.52,49.55,90.36c7.27,6.44,41.51,36.77,85.5,36.92
		c56.86,0.2,113.65-50.07,135.06-125.34c5.09-19.01,11.47-47.44,14.57-82.59c3.01-34.06,4.52-51.09-0.97-67.04
		c-16.32-47.42-79.92-68.83-116.6-73.84c-97.1-13.27-169.96,65.91-178.78,75.79c-2.65,18.14-4.37,40.54-2.91,66.07
		C287.7,414.93,294.02,441.99,300.44,462.4z"/>
	<ellipse class="st4" cx="367.47" cy="414.54" rx="14.79" ry="17.46"/>
	<ellipse class="st4" cx="505.09" cy="414.54" rx="14.79" ry="17.46"/>
	<path class="st5" d="M354.66,363.44c2.62-0.99,10.99-4.02,21.37-1.37c8.69,2.22,14.16,7.24,16.41,9.57
		c1.44,1.11,1.67,3.23,0.51,4.62c-1.15,1.38-3.26,1.54-4.62,0.34c-2.26-1.65-5.7-3.81-10.26-5.47c-3.42-1.24-7.63-2.77-12.99-2.39
		c-7.64,0.54-13.01,4.63-16.59,7.35c-4.12,3.14-6.88,6.44-8.55,8.72c-1.21,0.86-2.81,0.85-3.93,0c-1.27-0.96-1.66-2.79-0.85-4.27
		C336.75,377.68,342.53,368.03,354.66,363.44z"/>
	<path class="st5" d="M518.1,363.44c-2.62-0.99-10.99-4.02-21.37-1.37c-8.69,2.22-14.16,7.24-16.41,9.57
		c-1.44,1.11-1.67,3.23-0.51,4.62c1.15,1.38,3.26,1.54,4.62,0.34c2.26-1.65,5.7-3.81,10.26-5.47c3.42-1.24,7.63-2.77,12.99-2.39
		c7.64,0.54,13.01,4.63,16.59,7.35c4.12,3.14,6.88,6.44,8.55,8.72c1.21,0.86,2.81,0.85,3.93,0c1.27-0.96,1.66-2.79,0.85-4.27
		C536.01,377.68,530.23,368.03,518.1,363.44z"/>
	<ellipse class="st6" cx="370.15" cy="405.49" rx="4.29" ry="2.51"/>
	<ellipse class="st6" cx="374.59" cy="409.86" rx="3.08" ry="2.88"/>
	<ellipse class="st6" cx="507.02" cy="406.66" rx="4.04" ry="2.02"/>
	<ellipse class="st6" cx="511.2" cy="410.17" rx="2.9" ry="2.31"/>
	<path class="st2" d="M415.29,472.25c0.31-1.04,6.08,0.23,20.97,0.23c7.1,0,11.1-0.29,13.68-3.19c2.17-2.44,2.59-5.87,2.74-7.07
		c0.67-5.46-1.79-8.82-0.91-9.35c1.02-0.61,5.67,3.11,7.07,8.44c0.14,0.54,1.35,5.43-1.14,10.03c-5.28,9.75-21.95,8.6-23.94,8.44
		C423.35,478.92,414.89,473.58,415.29,472.25z"/>
	<path class="st2" d="M392.8,521.49c31.29-1.26,62.57-2.53,93.86-3.79c-1.38,5.52-6.32,22.72-20.22,33.46
		c-9.62,7.43-18.84,8.14-23.99,8.46c-5.85,0.36-19.6,0.96-32.68-10.67C399.4,539.74,394.71,527.52,392.8,521.49z"/>
	<path class="st7" d="M396.44,525.19c28.57-0.91,57.15-1.82,85.72-2.74c-1.26,3.99-5.77,16.41-18.47,24.17
		c-8.79,5.37-17.21,5.88-21.91,6.11c-5.34,0.26-17.9,0.69-29.84-7.7C402.47,538.37,398.18,529.54,396.44,525.19z"/>
	<path class="st8" d="M582.61,430.66c4.78-1.45,10.05,0.22,13.38,2.81c11.17,8.68,4.12,30.48,3.03,33.67
		c-1.9,5.58-5.15,15.08-13.22,17.33c-4.33,1.21-9.68,0.22-13.22-2.74C560.29,471.47,567.16,435.34,582.61,430.66z"/>
	<path class="st8" d="M293.36,429.44c-4.78-1.45-10.05,0.22-13.38,2.81c-11.17,8.68-4.12,30.48-3.03,33.67
		c1.9,5.58,5.15,15.08,13.22,17.33c4.33,1.21,9.68,0.22,13.22-2.74C315.69,470.25,308.81,434.12,293.36,429.44z"/>
	<path class="st9" d="M292.49,442.57c0.55,0.78-2.85,2.67-4.79,7.01c-2.4,5.39-1.88,13.09,2.22,16.93c3.14,2.94,7.21,2.51,7.18,3.59
		c-0.04,1.19-5.03,3.14-9.06,1.54c-6.64-2.63-6.99-13.37-7.01-14.36c-0.04-1.9-0.15-7.53,3.76-11.46
		C287.66,442.93,291.91,441.75,292.49,442.57z"/>
	<path class="st9" d="M580.82,443.78c-0.55,0.78,2.85,2.67,4.79,7.01c2.4,5.39,1.88,13.09-2.22,16.93
		c-3.14,2.94-7.21,2.51-7.18,3.59c0.04,1.19,5.03,3.14,9.06,1.54c6.64-2.63,6.99-13.37,7.01-14.36c0.04-1.9,0.15-7.53-3.76-11.46
		C585.64,444.15,581.39,442.97,580.82,443.78z"/>
	<path class="st10" d="M438.39,685.38c8.66,4.86,17.33,9.73,25.99,14.59c19.3-18.69,38.6-37.39,57.91-56.08
		c-13.53-8.06-27.05-16.11-40.58-24.17C467.26,641.61,452.83,663.5,438.39,685.38z"/>
	<path class="st10" d="M437.17,685.38c-8.66,4.86-17.33,9.73-25.99,14.59c-19.3-18.69-38.6-37.39-57.91-56.08
		c13.53-8.06,27.05-16.11,40.58-24.17C408.3,641.61,422.73,663.5,437.17,685.38z"/>
	<path class="st11" d="M437.93,682.5c6.84,3.8,13.68,7.6,20.52,11.4c-2.58,11.85-5.17,23.71-7.75,35.56c-8.66,0-17.33,0-25.99,0
		c-2.43-11.55-4.86-23.1-7.3-34.65C424.25,690.7,431.09,686.6,437.93,682.5z"/>
	<path class="st12" d="M311.12,465.32h-10.69c-7.78-22.23-16.06-53.67-17.76-91.96c-0.69-15.61-0.59-39.28,4.15-67.39
		c1.03-6.09,7.65-61.68,29.92-91.36c27.25-36.31,81.2-67.99,190.64-67.99c0,0-25.26,3.89-40.81,46.64c0,0,31.09-30.12,82.59-12.63
		c0,0-20.4,14.57-7.77,43.72c6.37,4.92,15.22,12.69,23.56,23.93c20.74,27.95,23.34,57.14,26.17,88.83
		c3.42,38.35-1.89,68.36-5.47,84.12c-4.16,18.32-9.6,33.27-14.14,44.08c-3.24,0-6.48,0-9.72,0c3.94-20.85,5.17-39.07,5.34-53.44
		c0.22-17.87-1.2-30.41-3.03-46.72c-2.1-18.63-3.97-25.67-6.84-32.49c-4.53-10.75-10.55-18.58-15.05-23.6
		c-1.94-2.61-5.13-6.27-9.92-9.57c-4.51-3.11-8.8-4.78-11.83-5.69c-13-4.12-23.3-4.34-30.26-3.8c-9.9,0.77-15.62,3.28-35.54,6.75
		c-6.63,1.16-25.21,1.45-33.02,0.4c-37.25-5.05-51.78-11.93-69.23-4.5c-1.62,0.69-3.5,1.68-3.5,1.68c0,0-9.89,5.04-18.04,12.34
		c-9.64,8.63-20.27,32.31-24.63,63.42c-2.38,16.98-2.04,30.06-1.7,40.88C305.26,433.58,308.34,452.22,311.12,465.32z"/>
	<path class="st6" d="M437.17,682.95c8.66,4.86,17.33,9.73,25.99,14.59c19.3-18.69,38.6-37.39,57.91-56.08
		c-13.53-8.06-27.05-16.11-40.58-24.17C466.05,639.18,451.61,661.07,437.17,682.95z"/>
	<path class="st6" d="M438.39,682.95c-8.66,4.86-17.33,9.73-25.99,14.59c-19.3-18.69-38.6-37.39-57.91-56.08
		c13.53-8.06,27.05-16.11,40.58-24.17C409.51,639.18,423.95,661.07,438.39,682.95z"/>
</g>
</svg>
