<?xml version="1.0" encoding="utf-8"?>
<!-- Generator: Adobe Illustrator 24.0.0, SVG Export Plug-In . SVG Version: 6.00 Build 0)  -->
<svg version="1.1" id="Layer_1" xmlns="http://www.w3.org/2000/svg" xmlns:xlink="http://www.w3.org/1999/xlink" x="0px" y="0px"
	 viewBox="0 0 144 144" style="enable-background:new 0 0 144 144;" xml:space="preserve">
<style type="text/css">
	.st0{fill-rule:evenodd;clip-rule:evenodd;fill:#1E1E1E;}
	.st1{fill-rule:evenodd;clip-rule:evenodd;fill:#FFFFFF;}
</style>
<g>
	<ellipse class="st0" cx="72" cy="72" rx="72" ry="72"/>
	<g>
		<path class="st1" d="M76.6,65.2c0.3-0.4,0.5-0.5,0.6-0.6c4.8-7.1,11.8-9.1,19.8-7.9c9.3,1.4,15.3,8,16.8,17.9
			c0.3,2.4,0.5,4.8,0.5,7.2c0,9.9,0,19.9,0,29.8c0,1.1-0.3,1.4-1.4,1.4c-5.2-0.1-10.4-0.1-15.6,0c-1.1,0-1.4-0.3-1.4-1.4
			c0-9.3,0-18.5,0-27.8c0-2.1-0.2-4.2-0.7-6.2c-1.9-6.5-9.3-8.8-14.7-4.5c-2.9,2.4-4,5.4-4,9.1c0,8.8,0,17.5,0,26.2
			c0,1.1-0.1,2.3,0,3.4c0.1,1-0.3,1.2-1.2,1.2c-5.3,0-10.6,0-15.9,0c-1,0-1.3-0.2-1.3-1.3c0.1-7.9,0.1-15.8,0.1-23.6
			c0-9.7,0-19.4-0.1-29.1c0-1.1,0.2-1.4,1.3-1.4c5.3,0.1,10.6,0,15.9,0c1,0,1.2,0.3,1.2,1.2C76.6,60.8,76.6,62.9,76.6,65.2z"/>
		<path class="st1" d="M48.1,85.3c0,8.8,0,17.5,0,26.2c0,1.1-0.2,1.5-1.4,1.4c-5.3-0.1-10.5,0-15.8,0c-1,0-1.3-0.2-1.3-1.3
			c0-17.6,0-35.2,0-52.9c0-0.9,0.2-1.2,1.2-1.2c5.4,0,10.7,0,16.1,0c1.1,0,1.2,0.4,1.2,1.3C48.1,67.7,48.1,76.5,48.1,85.3z"/>
		<path class="st1" d="M39.1,31c7,0,11.6,5.6,10,12.1c-1.3,4.9-6.4,7.8-12.3,6.8c-6.3-1-9.8-7.1-7.5-13.1C30.7,33.2,34.4,31,39.1,31
			z"/>
	</g>
</g>
</svg>
