<?xml version="1.0" encoding="utf-8"?>
<!-- Generator: Adobe Illustrator 24.0.0, SVG Export Plug-In . SVG Version: 6.00 Build 0)  -->
<svg version="1.1" xmlns="http://www.w3.org/2000/svg" xmlns:xlink="http://www.w3.org/1999/xlink" x="0px" y="0px"
	 viewBox="0 0 864 864" style="enable-background:new 0 0 864 864;" xml:space="preserve">
<style type="text/css">
	.st0{fill:#FFFFFF;stroke:#000000;stroke-width:12;stroke-miterlimit:10;}
	.st1{fill:#F6CCB0;}
	.st2{fill:#CEAD97;}
	.st3{fill:#F4CDAF;}
	.st4{fill:#39B54A;}
	.st5{fill:#A97C50;}
	.st6{fill:#FFFFFF;}
	.st7{fill:#FDFEFF;}
	.st8{fill:#F4CCB1;}
	.st9{fill:#D1B099;}
	.st10{opacity:0.26;fill:#58595B;enable-background:new    ;}
	.st11{fill:#2B3990;}
	.st12{fill:#C49A6C;}
	.st13{fill:none;stroke:#000000;stroke-width:12;stroke-miterlimit:10;}
</style>
<g id="Layer_1">
	<g id="Layer_2_1_">
		<circle class="st0" cx="437.3" cy="475.6" r="312.8"/>
	</g>
	<g id="Layer_1_1_">
		<path class="st1" d="M397,612.1c0.2,39.2,0.4,78.4,0.5,117.6c26.2-0.2,52.5-0.4,78.7-0.5c-0.4-39.2-0.7-78.4-1.1-117.6
			C449.1,611.7,423.1,611.9,397,612.1z"/>
		<path class="st2" d="M397.5,664.9c3.6-6.8,9.7-16,19.7-24.2c23-19,49.9-18.8,58-18.4c0.2-5.9,0.4-11.9,0.5-17.8
			c-26.2-0.7-52.5-1.4-78.7-2.2C397.2,623.2,397.4,644.1,397.5,664.9z"/>
		<path class="st3" d="M276.4,470.9c2.7,16.1,13.4,66.9,58.6,106.9c8.6,7.6,49.1,43.5,101.1,43.7c67.3,0.2,134.4-59.2,159.8-148.3
			c6-22.5,13.6-56.1,17.2-97.7c3.6-40.3,5.3-60.4-1.1-79.3c-19.3-56.1-94.5-81.4-137.9-87.3c-114.9-15.7-201,78-211.5,89.6
			c-3.1,21.5-5.2,48-3.4,78.2C261.4,414.8,268.8,446.8,276.4,470.9z"/>
		<ellipse class="st4" cx="355.7" cy="414.3" rx="17.5" ry="20.7"/>
		<ellipse class="st4" cx="518.5" cy="414.3" rx="17.5" ry="20.7"/>
		<path class="st5" d="M340.6,353.9c3.1-1.2,13-4.8,25.3-1.6c10.3,2.6,16.7,8.6,19.4,11.3c1.7,1.3,2,3.8,0.6,5.5
			c-1.4,1.6-3.9,1.8-5.5,0.4c-2.7-2-6.7-4.5-12.1-6.5c-4-1.5-9-3.3-15.4-2.8c-9,0.6-15.4,5.5-19.6,8.7c-4.9,3.7-8.1,7.6-10.1,10.3
			c-1.4,1-3.3,1-4.6,0c-1.5-1.1-2-3.3-1-5.1C319.4,370.7,326.2,359.3,340.6,353.9z"/>
		<path class="st5" d="M533.9,353.9c-3.1-1.2-13-4.8-25.3-1.6c-10.3,2.6-16.7,8.6-19.4,11.3c-1.7,1.3-2,3.8-0.6,5.5
			c1.4,1.6,3.9,1.8,5.5,0.4c2.7-2,6.7-4.5,12.1-6.5c4-1.5,9-3.3,15.4-2.8c9,0.6,15.4,5.5,19.6,8.7c4.9,3.7,8.1,7.6,10.1,10.3
			c1.4,1,3.3,1,4.6,0c1.5-1.1,2-3.3,1-5.1C555.1,370.7,548.2,359.3,533.9,353.9z"/>
		<ellipse class="st6" cx="358.9" cy="403.6" rx="5.1" ry="3"/>
		<ellipse class="st6" cx="364.1" cy="408.8" rx="3.6" ry="3.4"/>
		<ellipse class="st6" cx="520.8" cy="405" rx="4.8" ry="2.4"/>
		<ellipse class="st6" cx="525.7" cy="409.1" rx="3.4" ry="2.7"/>
		<path class="st2" d="M412.3,482.6c0.4-1.2,7.2,0.3,24.8,0.3c8.4,0,13.1-0.3,16.2-3.8c2.6-2.9,3.1-6.9,3.2-8.4
			c0.8-6.5-2.1-10.4-1.1-11.1c1.2-0.7,6.7,3.7,8.4,10c0.2,0.6,1.6,6.4-1.3,11.9c-6.2,11.5-26,10.2-28.3,10
			C421.8,490.5,411.8,484.1,412.3,482.6z"/>
		<path class="st2" d="M385.7,540.8c37-1.5,74-3,111-4.5c-1.6,6.5-7.5,26.9-23.9,39.6c-11.4,8.8-22.3,9.6-28.4,10
			c-6.9,0.4-23.2,1.1-38.7-12.6C393.5,562.4,387.9,547.9,385.7,540.8z"/>
		<path class="st7" d="M390,545.2c33.8-1.1,67.6-2.2,101.4-3.2c-1.5,4.7-6.8,19.4-21.8,28.6c-10.4,6.4-20.4,7-25.9,7.2
			c-6.3,0.3-21.2,0.8-35.3-9.1C397.1,560.8,392,550.3,390,545.2z"/>
		<path class="st8" d="M610.2,433.4c5.7-1.7,11.9,0.3,15.8,3.3c13.2,10.3,4.9,36.1,3.6,39.8c-2.2,6.6-6.1,17.8-15.6,20.5
			c-5.1,1.4-11.5,0.3-15.6-3.2C583.8,481.6,591.9,438.9,610.2,433.4z"/>
		<path class="st8" d="M268.1,431.9c-5.7-1.7-11.9,0.3-15.8,3.3c-13.2,10.3-4.9,36.1-3.6,39.8c2.2,6.6,6.1,17.8,15.6,20.5
			c5.1,1.4,11.5,0.3,15.6-3.2C294.5,480.2,286.3,437.5,268.1,431.9z"/>
		<path class="st9" d="M267,447.5c0.7,0.9-3.4,3.2-5.7,8.3c-2.8,6.4-2.2,15.5,2.6,20c3.7,3.5,8.5,3,8.5,4.2c0,1.4-5.9,3.7-10.7,1.8
			c-7.9-3.1-8.3-15.8-8.3-17c0-2.2-0.2-8.9,4.4-13.6C261.3,447.9,266.3,446.5,267,447.5z"/>
		<path class="st9" d="M608.1,448.9c-0.7,0.9,3.4,3.2,5.7,8.3c2.8,6.4,2.2,15.5-2.6,20c-3.7,3.5-8.5,3-8.5,4.2
			c0,1.4,5.9,3.7,10.7,1.8c7.9-3.1,8.3-15.8,8.3-17c0-2.2,0.2-8.9-4.4-13.6C613.8,449.3,608.8,447.9,608.1,448.9z"/>
		<path class="st10" d="M439.6,734.7c10.2,5.7,20.5,11.5,30.7,17.3c22.8-22.1,45.7-44.2,68.5-66.3c-16-9.5-32-19.1-48-28.6
			C473.8,682.9,456.7,708.8,439.6,734.7z"/>
		<path class="st10" d="M438.2,734.7c-10.2,5.7-20.5,11.5-30.7,17.3c-22.8-22.1-45.7-44.2-68.5-66.3c16-9.5,32-19.1,48-28.6
			C404,682.9,421.1,708.8,438.2,734.7z"/>
		<path class="st11" d="M439.1,731.3c8.1,4.5,16.2,9,24.3,13.5c-3.1,14-6.1,28-9.2,42.1c-10.2,0-20.5,0-30.7,0
			c-2.9-13.7-5.7-27.3-8.6-41C422.9,741,431,736.1,439.1,731.3z"/>
		<path class="st12" d="M289.1,474.4h-12.6c-9.2-26.3-19-63.5-21-108.8c-0.8-18.5-0.7-46.5,4.9-79.7c1.2-7.2,9-73,35.4-108.1
			c32.2-42.9,96-80.4,225.5-80.4c0,0-29.9,4.6-48.3,55.2c0,0,36.8-35.6,97.7-14.9c0,0-24.1,17.2-9.2,51.7c7.5,5.8,18,15,27.9,28.3
			c24.5,33.1,27.6,67.6,31,105.1c4,45.4-2.2,80.9-6.5,99.5c-4.9,21.7-11.4,39.4-16.7,52.1c-3.8,0-7.7,0-11.5,0
			c4.7-24.7,6.1-46.2,6.3-63.2c0.3-21.1-1.4-36-3.6-55.3c-2.5-22-4.7-30.4-8.1-38.4c-5.4-12.7-12.5-22-17.8-27.9
			c-2.3-3.1-6.1-7.4-11.7-11.3c-5.3-3.7-10.4-5.7-14-6.7c-15.4-4.9-27.6-5.1-35.8-4.5c-11.7,0.9-18.5,3.9-42,8
			c-7.8,1.4-29.8,1.7-39.1,0.5c-44.1-6-61.2-14.1-81.9-5.3c-1.9,0.8-4.1,2-4.1,2s-11.7,6-21.3,14.6c-11.4,10.2-24,38.2-29.1,75
			c-2.8,20.1-2.4,35.6-2,48.4C282.1,436.8,285.8,458.9,289.1,474.4z"/>
		<path class="st6" d="M438.2,731.8c10.2,5.7,20.5,11.5,30.7,17.3c22.8-22.1,45.7-44.2,68.5-66.3c-16-9.5-32-19.1-48-28.6
			C472.3,680,455.2,705.9,438.2,731.8z"/>
		<path class="st6" d="M439.6,731.8c-10.2,5.7-20.5,11.5-30.7,17.3c-22.8-22.1-45.7-44.2-68.5-66.3c16-9.5,32-19.1,48-28.6
			C405.5,680,422.5,705.9,439.6,731.8z"/>
	</g>
</g>
<g id="Layer_2">
	<g id="Layer_2_2_">
		<path class="st13" d="M128,522.7c22.7,150.4,152.5,265.7,309.2,265.7c162.4,0,295.9-123.8,311.3-282.3"/>
	</g>
</g>
</svg>
